<svg viewBox="0 0 900 700" xmlns="http://www.w3.org/2000/svg" style="background:#0e0e0e">
  <defs>
    <filter id="paint2" x="-20%" y="-20%" width="140%" height="140%">
      <feGaussianBlur stdDeviation="2.5"/>
    </filter>
  </defs>
  <text x="100" y="20" text-anchor="middle" fill="#888" font-size="12">Mon 25</text>
  <text x="220" y="20" text-anchor="middle" fill="#888" font-size="12">Tue 26</text>
  <text x="340" y="20" text-anchor="middle" fill="#888" font-size="12">Wed 27</text>
  <text x="460" y="20" text-anchor="middle" fill="#888" font-size="12">Thu 28</text>
  <text x="580" y="20" text-anchor="middle" fill="#fff" font-size="12" font-weight="bold">Fri 29</text>
  <text x="700" y="20" text-anchor="middle" fill="#888" font-size="12">Sat 30</text>
  <text x="820" y="20" text-anchor="middle" fill="#888" font-size="12">Sun 31</text>
  <line x1="160" y1="30" x2="160" y2="690" stroke="#3a3a3a" stroke-width="0.5"/>
  <line x1="280" y1="30" x2="280" y2="690" stroke="#3a3a3a" stroke-width="0.5"/>
  <line x1="400" y1="30" x2="400" y2="690" stroke="#3a3a3a" stroke-width="0.5"/>
  <line x1="520" y1="30" x2="520" y2="690" stroke="#3a3a3a" stroke-width="0.5"/>
  <line x1="640" y1="30" x2="640" y2="690" stroke="#3a3a3a" stroke-width="0.5"/>
  <line x1="760" y1="30" x2="760" y2="690" stroke="#3a3a3a" stroke-width="0.5"/>
  <line x1="40" y1="80" x2="880" y2="80" stroke="#2a2a2a" stroke-width="0.5"/>
  <line x1="40" y1="140" x2="880" y2="140" stroke="#2a2a2a" stroke-width="0.5"/>
  <line x1="40" y1="200" x2="880" y2="200" stroke="#2a2a2a" stroke-width="0.5"/>
  <line x1="40" y1="260" x2="880" y2="260" stroke="#2a2a2a" stroke-width="0.5"/>
  <line x1="40" y1="320" x2="880" y2="320" stroke="#2a2a2a" stroke-width="0.5"/>
  <line x1="40" y1="380" x2="880" y2="380" stroke="#2a2a2a" stroke-width="0.5"/>
  <line x1="40" y1="440" x2="880" y2="440" stroke="#2a2a2a" stroke-width="0.5"/>
  <text x="5" y="84" fill="#888" font-size="9">9 AM</text>
  <text x="5" y="144" fill="#888" font-size="9">11</text>
  <text x="5" y="204" fill="#888" font-size="9">1 PM</text>
  <text x="5" y="264" fill="#888" font-size="9">3</text>
  <text x="5" y="324" fill="#888" font-size="9">5</text>
  <text x="5" y="384" fill="#888" font-size="9">7</text>
  <text x="5" y="444" fill="#888" font-size="9">9</text>
  <rect x="520" y="30" width="120" height="450" fill="#fff" fill-opacity="0.03"/>
  <rect x="45" y="125" width="110" height="40" rx="3" fill="#3b82f6" fill-opacity="0.85"/>
  <text x="50" y="148" fill="#fff" font-size="9" font-weight="600">Eng review</text>
  <rect x="165" y="210" width="55" height="60" rx="3" fill="#10b981" fill-opacity="0.85"/>
  <text x="170" y="228" fill="#fff" font-size="8">Lunch</text>
  <rect x="222" y="210" width="55" height="60" rx="3" fill="#f59e0b" fill-opacity="0.85"/>
  <text x="227" y="228" fill="#fff" font-size="8">1:1 Sam</text>
  <rect x="405" y="305" width="110" height="50" rx="3" fill="#ec4899" fill-opacity="0.85"/>
  <text x="410" y="325" fill="#fff" font-size="9" font-weight="600">Gym</text>
  <g filter="url(#paint2)">
    <rect x="523" y="305" width="114" height="35" fill="#ec4899" fill-opacity="0.45"/>
    <rect x="528" y="315" width="110" height="50" fill="#f97316" fill-opacity="0.4"/>
    <rect x="523" y="335" width="114" height="65" fill="#a855f7" fill-opacity="0.42"/>
    <rect x="528" y="370" width="110" height="60" fill="#06b6d4" fill-opacity="0.4"/>
    <rect x="523" y="395" width="114" height="80" fill="#84cc16" fill-opacity="0.42"/>
  </g>
  <text x="530" y="328" fill="#fff" font-size="10" font-weight="600">Yoga · Heated</text>
  <rect x="610" y="312" width="26" height="14" rx="7" fill="#000" fill-opacity="0.55"/>
  <text x="623" y="322" text-anchor="middle" fill="#fff" font-size="8" font-weight="600">+4</text>
  <rect x="645" y="120" width="110" height="80" rx="3" fill="#8b5cf6" fill-opacity="0.85"/>
  <text x="650" y="138" fill="#fff" font-size="9" font-weight="600">Hiking trip</text>
  <line x1="0" y1="490" x2="900" y2="490" stroke="#7a7a7a" stroke-width="1"/>
  <text x="40" y="508" fill="#888" font-size="9" font-weight="600">AGENDA</text>
  <text x="50" y="528" fill="#3b82f6" font-size="8">11 AM</text>
  <text x="92" y="528" fill="#ccc" font-size="9">Eng review</text>
  <text x="170" y="528" fill="#10b981" font-size="8">1 PM</text>
  <text x="200" y="528" fill="#ccc" font-size="9">Lunch · Mia</text>
  <text x="170" y="544" fill="#f59e0b" font-size="8">1 PM</text>
  <text x="200" y="544" fill="#ccc" font-size="9">1:1 · Sam</text>
  <text x="410" y="528" fill="#ec4899" font-size="8">5 PM</text>
  <text x="438" y="528" fill="#ccc" font-size="9">Gym</text>
  <rect x="520" y="495" width="120" height="195" fill="#fff" fill-opacity="0.04"/>
  <rect x="525" y="510" width="3" height="14" fill="#ec4899"/>
  <text x="533" y="520" fill="#aaa" font-size="8">5:00 PM</text>
  <text x="525" y="535" fill="#fff" font-size="9" font-weight="600">Yoga · Heated</text>
  <rect x="525" y="550" width="3" height="14" fill="#f97316"/>
  <text x="533" y="560" fill="#aaa" font-size="8">5:30 PM</text>
  <text x="525" y="575" fill="#fff" font-size="9" font-weight="600">Daniela birthday</text>
  <rect x="525" y="590" width="3" height="14" fill="#a855f7"/>
  <text x="533" y="600" fill="#aaa" font-size="8">6:00 PM</text>
  <text x="525" y="615" fill="#fff" font-size="9" font-weight="600">Book club</text>
  <rect x="525" y="630" width="3" height="14" fill="#06b6d4"/>
  <text x="533" y="640" fill="#aaa" font-size="8">6:30 PM</text>
  <text x="525" y="655" fill="#fff" font-size="9" font-weight="600">Comedy showcase</text>
  <rect x="525" y="670" width="3" height="14" fill="#84cc16"/>
  <text x="533" y="680" fill="#aaa" font-size="8">7:00 PM</text>
  <text x="650" y="528" fill="#8b5cf6" font-size="8">10 AM</text>
  <text x="678" y="528" fill="#ccc" font-size="9">Hiking</text>
</svg>
